<?xml version="1.0" encoding="iso-8859-1"?>
<!-- Generator: Adobe Illustrator 19.0.0, SVG Export Plug-In . SVG Version: 6.00 Build 0)  -->
<svg version="1.1" id="Layer_1" xmlns="http://www.w3.org/2000/svg" xmlns:xlink="http://www.w3.org/1999/xlink" x="0px" y="0px"
	 viewBox="0 0 511.999 511.999" style="enable-background:new 0 0 511.999 511.999;" xml:space="preserve">
<path style="fill:#E6563A;" d="M189.334,511.999c-50.249,0-100.566-71.071-124.294-141.278
	c-30.152-89.315-8.968-146.592,14.109-178.913c29.696-41.603,87.696-77.837,153.283-43.142c8.652,4.549,15.315,6.587,23.467,7.13
	c8.174-0.549,15.272-2.701,23.554-7.119c65.75-34.734,123.837,1.608,153.609,43.326c22.968,32.174,44.011,89.298,13.826,178.717
	c-19.152,56.706-68.044,141.076-124.207,141.119c-21.49,0-31.348-7.326-40.044-13.788c-7.531-5.697-17.297-13.88-26.74-13.88
	c-6.229,0-14.684,5.38-26.38,12.831C218.385,504.085,206.992,511.999,189.334,511.999z"/>
<path style="fill:#D9472B;" d="M282.638,498.054c8.696,6.462,18.554,13.788,40.044,13.788
	c56.163-0.043,105.055-84.413,124.207-141.119c30.185-89.419,9.141-146.543-13.826-178.717
	c-29.772-41.717-87.859-78.06-153.609-43.326c-8.282,4.419-15.38,6.57-23.554,7.119v328.375
	C265.342,484.173,275.109,492.356,282.638,498.054z"/>
<path style="fill:#FFA999;" d="M128.302,349.326c-8.054-23.864-11.858-45.858-11.293-65.369
	c0.939-32.865,14.373-56.791,34.294-71.799c7.369-5.543,17.848-4.07,23.381,3.305c5.543,7.369,4.065,17.837-3.305,23.381
	c-14.697,11.055-20.468,27.831-21,46.071c-0.445,15.549,2.771,33.631,9.554,53.739c2.956,8.734-1.74,18.206-10.478,21.158
	C140.671,362.772,131.224,358.002,128.302,349.326z"/>
<path style="fill:#88CC2A;" d="M376.447,10.658c-0.432-2.229-1.438-4.242-3.02-5.823s-3.595-2.588-5.825-3.02
	c-34.512-5.752-69.168,1.941-93.831,26.387c-21.57,21.426-33.145,54.645-26.459,93.902c0.432,2.229,1.438,4.242,3.02,5.823
	c1.582,1.582,3.595,2.588,5.825,3.02c34.225,5.823,69.384-1.725,93.903-26.459C371.557,82.774,382.989,49.771,376.447,10.658z"/>
<path style="fill:#7FB335;" d="M350.06,104.487c-24.518,24.734-59.678,32.284-93.903,26.459c-2.229-0.432-4.243-1.438-5.825-3.02
	L373.427,4.833c1.582,1.582,2.588,3.595,3.02,5.823C382.989,49.771,371.557,82.774,350.06,104.487z"/>
<g>
</g>
<g>
</g>
<g>
</g>
<g>
</g>
<g>
</g>
<g>
</g>
<g>
</g>
<g>
</g>
<g>
</g>
<g>
</g>
<g>
</g>
<g>
</g>
<g>
</g>
<g>
</g>
<g>
</g>
</svg>
