<?xml version="1.0" encoding="iso-8859-1"?>
<!-- Generator: Adobe Illustrator 19.0.0, SVG Export Plug-In . SVG Version: 6.00 Build 0)  -->
<svg version="1.1" id="Layer_1" xmlns="http://www.w3.org/2000/svg" xmlns:xlink="http://www.w3.org/1999/xlink" x="0px" y="0px"
	 viewBox="0 0 512 512" style="enable-background:new 0 0 512 512;" xml:space="preserve">
<path style="fill:#36D9D9;" d="M233.739,210.031v2.783c-1.113,0.557-2.114,1.113-3.117,1.781
	c-8.459,5.343-14.803,12.577-18.587,21.037c-1.448,2.894-2.449,6.01-3.117,9.238c-0.892,3.562-1.336,7.346-1.336,11.13
	c0,7.123,1.558,14.024,4.452,20.369l-1.892,1.892H19.701c-9.239,0-16.696-7.569-16.696-16.696c0-2.337,0.445-4.452,1.336-6.456
	c2.449-5.565,5.898-10.685,10.352-15.137l112.639-112.64c6.568-6.567,17.03-6.567,23.598,0l60.215,60.104L233.739,210.031z"/>
<path style="fill:#E6563A;" d="M278.261,301.857v190.442c0,9.127-7.456,16.696-16.696,16.696c-2.337,0-4.452-0.445-6.457-1.336
	c-5.565-2.449-10.797-6.01-15.136-10.351l-112.641-112.64c-6.567-6.567-6.567-17.141,0-23.597l82.812-82.81h2.894
	c2.116,4.341,5.12,8.348,8.681,11.91c4.119,4.118,8.793,7.346,13.913,9.795c2.894,1.336,6.01,2.449,9.239,3.117
	c3.563,0.89,7.345,1.337,11.13,1.337c7.235,0,14.136-1.558,20.37-4.452L278.261,301.857z"/>
<path style="fill:#88CC2A;" d="M508.995,250.435c0,2.226-0.445,4.341-1.336,6.344c0,0.111-6.009,10.797-10.352,15.137
	L396.466,372.87l-11.797,11.798c-3.228,3.228-7.57,4.897-11.799,4.897s-8.57-1.67-11.799-4.897l-82.809-82.81v-2.894
	c4.452-2.226,8.459-5.231,12.022-8.793c4.117-4.007,7.345-8.682,9.682-13.802c1.337-3.005,2.449-6.122,3.117-9.238
	c0.892-3.673,1.336-7.346,1.336-11.13c0-7.235-1.558-14.136-4.452-20.369l1.892-1.892h190.442
	C501.538,233.739,508.995,241.197,508.995,250.435z"/>
<path style="fill:#FFE14D;" d="M384.669,150.929l-60.216,60.216l-22.596,22.595h-2.783c-3.896-7.68-9.906-14.247-17.697-19.144
	c-1.558-1.002-3.339-1.892-5.009-2.672c-2.894-1.446-6.01-2.56-9.239-3.228c-3.563-0.89-7.345-1.336-11.13-1.336
	c-7.012,0-14.024,1.558-20.37,4.563l-1.89-1.891V19.701c0-9.238,7.456-16.696,16.696-16.696c2.337,0,4.452,0.445,6.457,1.336
	c5.565,2.449,10.797,5.899,15.136,10.24L372.87,115.423l11.799,11.91C391.235,133.788,391.235,144.362,384.669,150.929z"/>
<path style="fill:#D9472B;" d="M494.191,494.748C489.85,505.21,479.722,512,468.481,512H275.367c-7.012,0-13.913-1.558-20.259-4.341
	c-6.009-2.56-10.239-8.57-10.239-15.36V303.082c3.563,0.89,7.345,1.337,11.13,1.337c7.235,0,14.136-1.558,20.37-4.452
	c0.667-0.334,1.335-0.668,1.891-1.002c4.452-2.226,8.459-5.231,12.022-8.793c4.117-4.007,7.345-8.682,9.682-13.802L488.07,464.474
	C496.085,472.487,498.421,484.285,494.191,494.748z"/>
<path style="fill:#43BFBF;" d="M235.63,299.965l-96.5,96.501L47.527,488.07c-5.343,5.343-12.466,8.125-19.701,8.125
	c-3.563,0-7.235-0.668-10.685-2.115C6.79,489.739,0,479.722,0,470.224V277.222c0-8.979,1.447-15.88,4.341-22.113
	c2.56-6.01,8.459-10.24,15.36-10.24h189.217c-0.892,3.562-1.336,7.346-1.336,11.13c0,7.123,1.558,14.024,4.452,20.369
	c0.334,0.668,0.555,1.224,1.002,1.892c2.116,4.341,5.12,8.348,8.681,11.91C225.837,294.289,230.511,297.516,235.63,299.965z"/>
<path style="fill:#7FB335;" d="M512,43.52v193.002c0,7.012-1.336,13.69-4.118,19.812c-0.111,0.334-1.002,2.337-1.447,3.005
	c-3.005,4.675-8.237,7.791-14.136,7.791H303.082c0.892-3.673,1.336-7.346,1.336-11.13c0-7.235-1.558-14.136-4.452-20.369
	c-0.223-0.668-0.555-1.336-0.89-1.892c-3.896-7.68-9.906-14.247-17.697-19.144c-1.558-1.002-3.339-1.892-5.009-2.672l24.487-24.487
	l48.417-48.417l115.2-115.199c8.014-8.014,19.923-10.351,30.386-6.01C505.21,22.15,512,32.278,512,43.52z"/>
<path style="fill:#FFCC33;" d="M267.13,19.701v188.995c-3.563-0.89-7.345-1.336-11.13-1.336c-7.012,0-14.024,1.558-20.37,4.563
	c-0.667,0.223-1.223,0.557-1.891,0.89c-1.113,0.557-2.114,1.113-3.117,1.781c-8.459,5.343-14.803,12.577-18.587,21.037
	l-24.488-24.487l-48.417-48.417l-23.597-23.597L23.93,47.416c-8.015-7.903-10.351-19.812-6.122-30.275
	C22.15,6.678,32.278,0,43.519,0h193.114c7.012,0,13.913,1.558,20.258,4.341C262.901,6.901,267.13,12.8,267.13,19.701z"/>
<path style="fill:#FFF5CC;" d="M256,337.756c-21.902,0-42.467-8.495-57.88-23.924c-15.423-15.413-23.924-35.967-23.924-57.88
	c0-28.282,14.413-54.283,38.544-69.549c26.261-16.641,60.228-16.641,86.532,0c24.12,15.267,38.532,41.266,38.532,69.549
	c0,21.914-8.5,42.467-23.924,57.886C298.467,329.262,277.902,337.756,256,337.756z"/>
<path style="fill:#FFDAAA;" d="M256,207.403c-26.25,0-48.413,21.136-48.413,48.549c0,26.891,21.589,48.413,48.413,48.413
	c26.79,0,48.413-21.478,48.413-48.413C304.413,228.54,282.261,207.403,256,207.403z"/>
<g>
</g>
<g>
</g>
<g>
</g>
<g>
</g>
<g>
</g>
<g>
</g>
<g>
</g>
<g>
</g>
<g>
</g>
<g>
</g>
<g>
</g>
<g>
</g>
<g>
</g>
<g>
</g>
<g>
</g>
</svg>
