<?xml version="1.0" encoding="iso-8859-1"?>
<!-- Generator: Adobe Illustrator 19.0.0, SVG Export Plug-In . SVG Version: 6.00 Build 0)  -->
<svg version="1.1" id="Layer_1" xmlns="http://www.w3.org/2000/svg" xmlns:xlink="http://www.w3.org/1999/xlink" x="0px" y="0px"
	 viewBox="0 0 491.52 491.52" style="enable-background:new 0 0 491.52 491.52;" xml:space="preserve">
<circle style="fill:#2D93BA;" cx="245.76" cy="245.76" r="245.76"/>
<circle style="fill:#FFFFFF;" cx="245.76" cy="245.76" r="197.699"/>
<path style="fill:#EBF0F3;" d="M245.761,58.852c107.364,0,194.539,85.636,197.426,192.303c0.048-1.81,0.272-3.574,0.272-5.395
	c0-109.186-88.511-197.7-197.697-197.7c-109.187,0-197.7,88.514-197.7,197.7c0,1.821,0.224,3.585,0.273,5.395
	C51.22,144.488,138.394,58.852,245.761,58.852z"/>
<path style="fill:#E56353;" d="M372.711,224.883h45.456c-5.374-44.777-27.699-84.3-60.464-111.943l-31.974,31.975
	C350.263,164.396,367.439,192.612,372.711,224.883z"/>
<path style="fill:#D15241;" d="M418.167,224.883h-45.456c1.113,6.812,1.842,13.752,1.842,20.877
	c0,30.244-10.539,57.948-28.008,79.908l31.845,31.846c25.539-30.222,41.148-69.085,41.148-111.754
	C419.539,238.68,418.99,231.74,418.167,224.883z"/>
<path style="fill:#3EA69B;" d="M245.761,116.967c30.242,0,57.992,10.497,79.969,27.948l31.974-31.975
	c-30.246-25.519-69.271-40.958-111.942-40.958l0,0V116.967L245.761,116.967z"/>
<path style="fill:#FCD462;" d="M118.809,224.883H73.353c-0.823,6.857-1.371,13.797-1.371,20.877
	c0,42.669,15.61,81.531,41.146,111.754l31.847-31.846c-17.47-21.958-28.008-49.663-28.008-79.908
	C116.967,238.635,117.697,231.694,118.809,224.883z"/>
<path style="fill:#F6C358;" d="M165.791,144.914l-31.974-31.974c-32.765,27.643-55.092,67.166-60.465,111.942h45.457
	C124.082,192.612,141.257,164.396,165.791,144.914z"/>
<path style="fill:#44C4A1;" d="M245.761,116.967V71.982c-42.672,0-81.697,15.439-111.943,40.959l31.974,31.974
	C187.768,127.464,215.516,116.967,245.761,116.967z"/>
<path style="fill:#64798A;" d="M213.918,299.359c-4.699-2.893-6.165-9.053-3.272-13.752l109.115-177.235
	c2.893-4.699,9.053-6.165,13.752-3.272c4.7,2.893,6.165,9.053,3.272,13.753L227.67,296.087
	C224.777,300.787,218.617,302.253,213.918,299.359z"/>
<ellipse style="fill:#EBF0F3;" cx="246.445" cy="246.538" rx="32.763" ry="32.763"/>
<ellipse style="fill:#64798A;" cx="246.445" cy="246.543" rx="13.466" ry="13.466"/>
<g>
</g>
<g>
</g>
<g>
</g>
<g>
</g>
<g>
</g>
<g>
</g>
<g>
</g>
<g>
</g>
<g>
</g>
<g>
</g>
<g>
</g>
<g>
</g>
<g>
</g>
<g>
</g>
<g>
</g>
</svg>
