<svg id="svg" version="1.1" width="400" height="402" xmlns="http://www.w3.org/2000/svg" xmlns:xlink="http://www.w3.org/1999/xlink" style="display: block;"><g id="svgg"><path id="path0" d="M177.500 29.000 C 177.160 29.550,174.434 30.000,171.441 30.000 C 168.448 30.000,166.000 30.450,166.000 31.000 C 166.000 31.550,163.750 32.000,161.000 32.000 C 158.250 32.000,156.000 32.450,156.000 33.000 C 156.000 33.550,154.452 34.000,152.559 34.000 C 150.666 34.000,148.840 34.450,148.500 35.000 C 148.160 35.550,146.559 36.000,144.941 36.000 C 143.323 36.000,142.000 36.450,142.000 37.000 C 142.000 37.550,140.902 38.000,139.559 38.000 C 138.216 38.000,136.840 38.450,136.500 39.000 C 136.160 39.550,135.009 40.000,133.941 40.000 C 132.873 40.000,132.000 40.450,132.000 41.000 C 132.000 41.550,131.100 42.000,130.000 42.000 C 128.900 42.000,128.000 42.450,128.000 43.000 C 128.000 43.550,126.875 44.000,125.500 44.000 C 124.125 44.000,123.000 44.450,123.000 45.000 C 123.000 45.550,122.199 46.000,121.221 46.000 C 120.242 46.000,118.793 46.900,118.000 48.000 C 117.207 49.100,115.758 50.000,114.779 50.000 C 113.801 50.000,113.000 50.450,113.000 51.000 C 113.000 51.550,112.100 52.000,111.000 52.000 C 109.900 52.000,109.000 52.450,109.000 53.000 C 109.000 53.550,108.199 54.000,107.221 54.000 C 106.242 54.000,104.793 54.900,104.000 56.000 C 103.207 57.100,101.938 58.000,101.180 58.000 C 100.423 58.000,98.541 59.350,97.000 61.000 C 95.459 62.650,93.678 64.000,93.043 64.000 C 92.409 64.000,89.239 66.700,86.000 70.000 C 82.761 73.300,79.724 76.000,79.252 76.000 C 78.200 76.000,72.000 82.295,72.000 83.363 C 72.000 83.785,69.750 86.321,67.000 89.000 C 64.250 91.679,62.000 94.394,62.000 95.034 C 62.000 95.674,60.650 97.459,59.000 99.000 C 57.350 100.541,56.000 102.423,56.000 103.180 C 56.000 103.938,55.100 105.207,54.000 106.000 C 52.900 106.793,52.000 108.242,52.000 109.221 C 52.000 110.199,51.550 111.000,51.000 111.000 C 50.450 111.000,50.000 111.801,50.000 112.779 C 50.000 113.758,49.100 115.207,48.000 116.000 C 46.900 116.793,46.000 118.242,46.000 119.221 C 46.000 120.199,45.550 121.000,45.000 121.000 C 44.450 121.000,44.000 121.900,44.000 123.000 C 44.000 124.100,43.550 125.000,43.000 125.000 C 42.450 125.000,42.000 125.900,42.000 127.000 C 42.000 128.100,41.550 129.000,41.000 129.000 C 40.450 129.000,40.000 130.125,40.000 131.500 C 40.000 132.875,39.550 134.000,39.000 134.000 C 38.450 134.000,38.000 134.900,38.000 136.000 C 38.000 137.100,37.550 138.000,37.000 138.000 C 36.450 138.000,36.000 139.350,36.000 141.000 C 36.000 142.650,35.550 144.000,35.000 144.000 C 34.450 144.000,34.000 145.350,34.000 147.000 C 34.000 148.650,33.550 150.000,33.000 150.000 C 32.450 150.000,32.000 151.323,32.000 152.941 C 32.000 154.559,31.550 156.160,31.000 156.500 C 30.450 156.840,30.000 158.640,30.000 160.500 C 30.000 162.360,29.550 164.160,29.000 164.500 C 28.450 164.840,28.000 167.476,28.000 170.359 C 28.000 173.242,27.474 176.126,26.830 176.770 C 25.136 178.464,25.101 235.501,26.793 237.193 C 27.457 237.857,28.000 240.758,28.000 243.641 C 28.000 246.524,28.450 249.160,29.000 249.500 C 29.550 249.840,30.000 251.640,30.000 253.500 C 30.000 255.360,30.450 257.160,31.000 257.500 C 31.550 257.840,32.000 259.640,32.000 261.500 C 32.000 263.360,32.450 265.160,33.000 265.500 C 33.550 265.840,34.000 267.190,34.000 268.500 C 34.000 269.810,34.450 271.160,35.000 271.500 C 35.550 271.840,36.000 273.216,36.000 274.559 C 36.000 275.902,36.450 277.000,37.000 277.000 C 37.550 277.000,38.000 277.900,38.000 279.000 C 38.000 280.100,38.450 281.000,39.000 281.000 C 39.550 281.000,40.000 281.900,40.000 283.000 C 40.000 284.100,40.450 285.000,41.000 285.000 C 41.550 285.000,42.000 286.350,42.000 288.000 C 42.000 289.650,42.450 291.000,43.000 291.000 C 43.550 291.000,44.000 291.900,44.000 293.000 C 44.000 294.100,44.450 295.000,45.000 295.000 C 45.550 295.000,46.000 295.900,46.000 297.000 C 46.000 298.100,46.450 299.000,47.000 299.000 C 47.550 299.000,48.000 299.801,48.000 300.779 C 48.000 301.758,48.900 303.207,50.000 304.000 C 51.100 304.793,52.000 306.242,52.000 307.221 C 52.000 308.199,52.450 309.000,53.000 309.000 C 53.550 309.000,54.000 309.801,54.000 310.779 C 54.000 311.758,54.900 313.207,56.000 314.000 C 57.100 314.793,58.000 315.950,58.000 316.572 C 58.000 317.194,59.350 319.116,61.000 320.843 C 62.650 322.569,64.000 324.240,64.000 324.556 C 64.000 324.872,66.250 327.321,69.000 330.000 C 71.750 332.679,74.000 335.357,74.000 335.952 C 74.000 337.279,85.980 350.000,87.231 350.000 C 87.725 350.000,90.321 352.250,93.000 355.000 C 95.679 357.750,98.394 360.000,99.034 360.000 C 99.674 360.000,101.459 361.350,103.000 363.000 C 104.541 364.650,106.316 366.000,106.943 366.000 C 107.570 366.000,109.050 366.900,110.230 368.000 C 113.463 371.012,116.103 370.424,120.000 365.824 C 121.925 363.552,125.862 359.296,128.750 356.368 C 134.274 350.766,135.348 348.000,132.000 348.000 C 130.900 348.000,130.000 347.550,130.000 347.000 C 130.000 346.450,129.100 346.000,128.000 346.000 C 126.900 346.000,126.000 345.550,126.000 345.000 C 126.000 344.450,125.410 344.000,124.689 344.000 C 123.967 344.000,122.411 343.100,121.230 342.000 C 120.050 340.900,118.813 340.000,118.483 340.000 C 117.872 340.000,112.602 335.249,103.857 326.815 C 101.186 324.238,99.000 321.525,99.000 320.786 C 99.000 320.046,98.100 318.793,97.000 318.000 C 95.900 317.207,95.000 315.758,95.000 314.779 C 95.000 313.801,94.550 313.000,94.000 313.000 C 93.450 313.000,93.000 312.100,93.000 311.000 C 93.000 309.900,92.550 309.000,92.000 309.000 C 91.450 309.000,91.000 308.100,91.000 307.000 C 91.000 305.900,90.550 305.000,90.000 305.000 C 89.450 305.000,89.000 304.100,89.000 303.000 C 89.000 301.900,88.550 301.000,88.000 301.000 C 87.450 301.000,87.000 299.650,87.000 298.000 C 87.000 296.350,86.550 295.000,86.000 295.000 C 85.417 295.000,85.000 291.667,85.000 287.000 C 85.000 282.333,85.417 279.000,86.000 279.000 C 86.550 279.000,87.000 278.100,87.000 277.000 C 87.000 275.900,87.450 275.000,88.000 275.000 C 88.550 275.000,89.000 274.531,89.000 273.958 C 89.000 273.385,89.900 271.950,91.000 270.770 C 92.100 269.589,93.000 268.033,93.000 267.311 C 93.000 266.590,93.608 266.000,94.352 266.000 C 95.095 266.000,97.116 264.650,98.843 263.000 C 100.569 261.350,102.661 260.000,103.491 260.000 C 104.321 260.000,105.000 259.550,105.000 259.000 C 105.000 258.450,106.800 258.000,109.000 258.000 C 111.200 258.000,113.000 257.550,113.000 257.000 C 113.000 256.450,114.998 256.000,117.441 256.000 C 119.884 256.000,122.160 255.550,122.500 255.000 C 122.840 254.450,125.116 254.000,127.559 254.000 C 130.002 254.000,132.000 253.550,132.000 253.000 C 132.000 252.417,135.333 252.000,140.000 252.000 C 144.667 252.000,148.000 252.417,148.000 253.000 C 148.000 253.550,148.690 254.000,149.533 254.000 C 151.524 254.000,158.000 260.476,158.000 262.467 C 158.000 263.310,158.450 264.000,159.000 264.000 C 159.550 264.000,160.000 265.548,160.000 267.441 C 160.000 269.334,160.450 271.160,161.000 271.500 C 161.550 271.840,162.000 275.466,162.000 279.559 C 162.000 283.853,162.423 287.000,163.000 287.000 C 163.583 287.000,164.000 290.333,164.000 295.000 C 164.000 299.667,164.417 303.000,165.000 303.000 C 165.583 303.000,166.000 306.333,166.000 311.000 C 166.000 315.667,166.417 319.000,167.000 319.000 C 167.578 319.000,168.000 322.167,168.000 326.500 C 168.000 330.833,168.422 334.000,169.000 334.000 C 169.556 334.000,170.000 336.667,170.000 340.000 C 170.000 343.333,170.444 346.000,171.000 346.000 C 171.550 346.000,172.000 347.113,172.000 348.473 C 172.000 351.155,179.435 360.000,181.689 360.000 C 182.410 360.000,183.000 360.450,183.000 361.000 C 183.000 361.554,185.647 362.000,188.941 362.000 C 192.209 362.000,195.160 362.450,195.500 363.000 C 195.848 363.563,200.677 364.000,206.559 364.000 C 212.853 364.000,217.000 364.397,217.000 365.000 C 217.000 365.603,221.167 366.000,227.500 366.000 C 233.833 366.000,238.000 366.397,238.000 367.000 C 238.000 367.620,243.435 368.000,252.304 368.000 L 266.608 368.000 269.821 364.685 C 273.698 360.684,275.000 356.556,275.000 348.257 C 275.000 344.752,275.440 342.000,276.000 342.000 C 276.583 342.000,277.000 338.667,277.000 334.000 C 277.000 329.333,277.417 326.000,278.000 326.000 C 278.578 326.000,279.000 322.833,279.000 318.500 C 279.000 314.167,279.422 311.000,280.000 311.000 C 280.593 311.000,281.000 307.333,281.000 302.000 C 281.000 296.667,281.407 293.000,282.000 293.000 C 282.583 293.000,283.000 289.667,283.000 285.000 C 283.000 280.333,283.417 277.000,284.000 277.000 C 284.578 277.000,285.000 273.833,285.000 269.500 C 285.000 265.167,285.422 262.000,286.000 262.000 C 286.583 262.000,287.000 258.667,287.000 254.000 C 287.000 249.333,287.417 246.000,288.000 246.000 C 288.550 246.000,289.000 245.305,289.000 244.455 C 289.000 242.689,293.359 238.000,295.000 238.000 C 298.429 238.000,301.000 242.908,301.000 249.455 C 301.000 253.152,300.565 256.000,300.000 256.000 C 299.417 256.000,299.000 259.333,299.000 264.000 C 299.000 268.667,298.583 272.000,298.000 272.000 C 297.422 272.000,297.000 275.167,297.000 279.500 C 297.000 283.833,296.578 287.000,296.000 287.000 C 295.417 287.000,295.000 290.333,295.000 295.000 C 295.000 299.667,294.583 303.000,294.000 303.000 C 293.417 303.000,293.000 306.333,293.000 311.000 C 293.000 315.667,292.583 319.000,292.000 319.000 C 291.423 319.000,291.000 322.147,291.000 326.441 C 291.000 330.534,290.550 334.160,290.000 334.500 C 289.450 334.840,289.000 338.466,289.000 342.559 C 289.000 346.853,288.577 350.000,288.000 350.000 C 286.062 350.000,286.757 369.095,288.750 370.608 C 296.622 376.584,326.000 368.076,326.000 359.821 C 326.000 359.062,326.900 357.793,328.000 357.000 C 329.100 356.207,330.000 354.857,330.000 354.000 C 330.000 353.143,330.900 351.793,332.000 351.000 C 333.100 350.207,334.000 348.857,334.000 348.000 C 334.000 347.143,334.900 345.793,336.000 345.000 C 337.100 344.207,338.000 342.758,338.000 341.779 C 338.000 340.801,338.450 340.000,339.000 340.000 C 339.550 340.000,340.000 339.100,340.000 338.000 C 340.000 336.900,340.450 336.000,341.000 336.000 C 341.550 336.000,342.000 335.199,342.000 334.221 C 342.000 333.242,342.900 331.793,344.000 331.000 C 345.100 330.207,346.000 328.758,346.000 327.779 C 346.000 326.801,346.337 325.996,346.750 325.992 C 347.765 325.982,350.000 321.035,350.000 318.801 C 350.000 317.810,350.450 317.000,351.000 317.000 C 351.550 317.000,352.000 316.100,352.000 315.000 C 352.000 313.900,352.450 313.000,353.000 313.000 C 353.550 313.000,354.000 312.100,354.000 311.000 C 354.000 309.900,354.450 309.000,355.000 309.000 C 355.550 309.000,356.000 308.100,356.000 307.000 C 356.000 305.900,356.450 305.000,357.000 305.000 C 357.550 305.000,358.000 303.650,358.000 302.000 C 358.000 300.350,358.450 299.000,359.000 299.000 C 359.550 299.000,360.000 297.650,360.000 296.000 C 360.000 294.350,360.450 293.000,361.000 293.000 C 361.550 293.000,362.000 291.650,362.000 290.000 C 362.000 288.350,362.450 287.000,363.000 287.000 C 363.550 287.000,364.000 285.650,364.000 284.000 C 364.000 282.350,364.450 281.000,365.000 281.000 C 365.550 281.000,366.000 279.452,366.000 277.559 C 366.000 275.666,366.450 273.840,367.000 273.500 C 367.550 273.160,368.000 271.360,368.000 269.500 C 368.000 267.640,368.450 265.840,369.000 265.500 C 369.550 265.160,370.000 262.910,370.000 260.500 C 370.000 258.090,370.450 255.840,371.000 255.500 C 371.550 255.160,372.000 252.010,372.000 248.500 C 372.000 244.990,372.380 241.883,372.845 241.596 C 375.920 239.695,374.123 171.914,370.908 168.550 C 370.409 168.027,370.000 165.890,370.000 163.800 C 370.000 161.710,369.550 160.000,369.000 160.000 C 368.450 160.000,368.000 158.200,368.000 156.000 C 368.000 153.800,367.550 152.000,367.000 152.000 C 366.450 152.000,366.000 150.650,366.000 149.000 C 366.000 147.350,365.550 146.000,365.000 146.000 C 364.450 146.000,364.000 144.650,364.000 143.000 C 364.000 141.350,363.550 140.000,363.000 140.000 C 362.450 140.000,362.000 139.143,362.000 138.095 C 362.000 136.054,357.997 127.721,356.750 127.167 C 356.337 126.983,356.000 125.971,356.000 124.917 C 356.000 123.862,355.550 123.000,355.000 123.000 C 354.450 123.000,354.000 122.100,354.000 121.000 C 354.000 119.900,353.550 119.000,353.000 119.000 C 352.450 119.000,352.000 118.199,352.000 117.221 C 352.000 116.242,351.100 114.793,350.000 114.000 C 348.900 113.207,348.000 111.758,348.000 110.779 C 348.000 109.801,347.550 109.000,347.000 109.000 C 346.450 109.000,346.000 108.199,346.000 107.221 C 346.000 106.242,345.100 104.793,344.000 104.000 C 342.900 103.207,342.000 101.948,342.000 101.201 C 342.000 100.454,340.200 98.114,338.000 96.000 C 335.800 93.886,334.000 91.655,334.000 91.043 C 334.000 89.576,312.440 68.000,310.975 68.000 C 310.352 68.000,308.114 66.200,306.000 64.000 C 303.886 61.800,301.546 60.000,300.799 60.000 C 300.052 60.000,298.793 59.100,298.000 58.000 C 297.207 56.900,295.857 56.000,295.000 56.000 C 294.143 56.000,292.793 55.100,292.000 54.000 C 291.207 52.900,289.758 52.000,288.779 52.000 C 287.801 52.000,287.000 51.550,287.000 51.000 C 287.000 50.450,286.100 50.000,285.000 50.000 C 283.900 50.000,283.000 49.550,283.000 49.000 C 283.000 48.450,282.100 48.000,281.000 48.000 C 279.900 48.000,279.000 47.550,279.000 47.000 C 279.000 46.450,278.137 46.000,277.083 46.000 C 276.029 46.000,275.017 45.663,274.833 45.250 C 274.279 44.003,265.946 40.000,263.905 40.000 C 262.857 40.000,262.000 39.550,262.000 39.000 C 262.000 38.450,260.650 38.000,259.000 38.000 C 257.350 38.000,256.000 37.550,256.000 37.000 C 256.000 36.450,254.650 36.000,253.000 36.000 C 251.350 36.000,250.000 35.550,250.000 35.000 C 250.000 34.450,248.677 34.000,247.059 34.000 C 245.441 34.000,243.840 33.550,243.500 33.000 C 243.160 32.450,240.884 32.000,238.441 32.000 C 235.998 32.000,234.000 31.550,234.000 31.000 C 234.000 30.446,231.353 30.000,228.059 30.000 C 224.791 30.000,221.840 29.550,221.500 29.000 C 220.664 27.647,178.336 27.647,177.500 29.000 M258.000 83.000 C 258.000 84.100,258.450 85.000,259.000 85.000 C 259.550 85.000,260.000 85.900,260.000 87.000 C 260.000 88.100,260.450 89.000,261.000 89.000 C 261.550 89.000,262.000 89.900,262.000 91.000 C 262.000 92.100,262.450 93.000,263.000 93.000 C 263.550 93.000,264.000 94.350,264.000 96.000 C 264.000 97.650,264.450 99.000,265.000 99.000 C 265.550 99.000,266.000 100.350,266.000 102.000 C 266.000 103.650,266.450 105.000,267.000 105.000 C 267.550 105.000,268.000 106.800,268.000 109.000 C 268.000 111.200,268.450 113.000,269.000 113.000 C 269.626 113.000,270.000 119.167,270.000 129.500 C 270.000 139.833,269.626 146.000,269.000 146.000 C 268.450 146.000,268.000 148.250,268.000 151.000 C 268.000 153.750,267.550 156.000,267.000 156.000 C 266.450 156.000,266.000 157.350,266.000 159.000 C 266.000 160.650,265.550 162.000,265.000 162.000 C 264.450 162.000,264.000 162.900,264.000 164.000 C 264.000 165.100,263.550 166.000,263.000 166.000 C 262.450 166.000,262.000 167.350,262.000 169.000 C 262.000 170.650,261.550 172.000,261.000 172.000 C 260.450 172.000,260.000 172.801,260.000 173.779 C 260.000 174.758,259.100 176.207,258.000 177.000 C 256.900 177.793,256.000 179.017,256.000 179.721 C 256.000 180.424,255.550 181.000,255.000 181.000 C 254.450 181.000,254.000 181.710,254.000 182.578 C 254.000 183.447,252.200 185.886,250.000 188.000 C 247.800 190.114,246.000 192.340,246.000 192.948 C 246.000 194.253,237.450 203.000,236.175 203.000 C 235.692 203.000,233.865 204.368,232.116 206.039 C 229.220 208.807,228.795 208.938,227.359 207.501 C 225.922 206.065,225.970 205.761,227.891 204.095 C 229.051 203.089,230.000 201.711,230.000 201.034 C 230.000 200.357,231.350 198.541,233.000 197.000 C 234.650 195.459,236.000 193.577,236.000 192.820 C 236.000 192.062,236.900 190.793,238.000 190.000 C 239.100 189.207,240.000 187.758,240.000 186.779 C 240.000 185.801,240.450 185.000,241.000 185.000 C 241.550 185.000,242.000 184.100,242.000 183.000 C 242.000 181.900,242.450 181.000,243.000 181.000 C 243.550 181.000,244.000 180.100,244.000 179.000 C 244.000 177.900,244.450 177.000,245.000 177.000 C 245.550 177.000,246.000 176.325,246.000 175.500 C 246.000 174.675,246.450 174.000,247.000 174.000 C 247.550 174.000,248.000 173.100,248.000 172.000 C 248.000 170.900,248.450 170.000,249.000 170.000 C 249.550 170.000,250.000 169.127,250.000 168.059 C 250.000 166.991,250.450 165.840,251.000 165.500 C 251.550 165.160,252.000 163.784,252.000 162.441 C 252.000 161.098,252.450 160.000,253.000 160.000 C 253.550 160.000,254.000 158.200,254.000 156.000 C 254.000 153.800,254.450 152.000,255.000 152.000 C 255.550 152.000,256.000 150.200,256.000 148.000 C 256.000 145.800,256.450 144.000,257.000 144.000 C 257.556 144.000,258.000 141.333,258.000 138.000 C 258.000 134.667,258.444 132.000,259.000 132.000 C 259.626 132.000,260.000 125.833,260.000 115.500 C 260.000 105.167,259.626 99.000,259.000 99.000 C 258.444 99.000,258.000 96.333,258.000 93.000 C 258.000 89.667,257.556 87.000,257.000 87.000 C 256.450 87.000,256.000 85.650,256.000 84.000 C 256.000 82.350,256.450 81.000,257.000 81.000 C 257.550 81.000,258.000 81.900,258.000 83.000 M177.800 157.200 C 179.214 158.614,179.406 163.631,178.077 164.452 C 177.569 164.766,176.852 166.398,176.483 168.079 C 175.668 171.788,173.628 172.771,171.390 170.533 C 170.150 169.293,170.017 168.583,170.864 167.736 C 171.489 167.111,172.000 165.805,172.000 164.834 C 172.000 162.800,175.068 156.000,175.985 156.000 C 176.323 156.000,177.140 156.540,177.800 157.200 " stroke="none" fill="#bb2545" fill-rule="evenodd"></path></g></svg>