<svg xmlns="http://www.w3.org/2000/svg" xmlns:xlink="http://www.w3.org/1999/xlink" version="1.1" xml:space="preserve" width="512" height="512"><rect id="backgroundrect" width="100%" height="100%" x="0" y="0" fill="none" stroke="none"/>


















<g class="currentLayer"><title>Layer 1</title><path d="M256,0C114.843,0,0,114.843,0,256s114.843,256,256,256s256-114.843,256-256S397.157,0,256,0z" id="svg_1" class="" fill-opacity="1" fill="#cde786"/><path d="M256,493.037C125.296,493.037,18.963,386.704,18.963,256S125.296,18.963,256,18.963  S493.037,125.296,493.037,256S386.704,493.037,256,493.037z" id="svg_2" class="" fill-opacity="1" fill="#def0a5"/><path d="M232.907,149.741c-3.704-3.704-9.704-3.704-13.407,0c-3.703,3.704-3.704,9.704,0,13.407L312.352,256  L219.5,348.852c-3.704,3.704-3.704,9.704,0,13.407c1.852,1.852,4.278,2.778,6.704,2.778c2.426,0,4.852-0.926,6.704-2.778  l99.556-99.556c3.704-3.704,3.704-9.704,0-13.407L232.907,149.741z" id="svg_3" class="" fill-opacity="1" fill="#7ca500"/><g id="svg_4">
</g><g id="svg_5">
</g><g id="svg_6">
</g><g id="svg_7">
</g><g id="svg_8">
</g><g id="svg_9">
</g><g id="svg_10">
</g><g id="svg_11">
</g><g id="svg_12">
</g><g id="svg_13">
</g><g id="svg_14">
</g><g id="svg_15">
</g><g id="svg_16">
</g><g id="svg_17">
</g><g id="svg_18">
</g></g></svg>