<svg xmlns="http://www.w3.org/2000/svg" xmlns:xlink="http://www.w3.org/1999/xlink" version="1.1" xml:space="preserve" width="473.654" height="473.654"><rect id="backgroundrect" width="100%" height="100%" x="0" y="0" fill="none" stroke="none"/>

















<g class="currentLayer"><title>Layer 1</title><circle style="" cx="236.82699584960938" cy="236.82699584960938" r="236.82699584960938" id="svg_1" class="selected" fill="#7fc861" fill-opacity="1"/><path style="fill:#FFFFFF;" d="M384.682,216.091c-27.011-27.011-54.018-54.022-81.029-81.033  c-25.56-25.564-65.08,14.259-39.456,39.883c11.009,11.009,22.019,22.019,33.028,33.032c-62.051,0-124.102,0-186.148,0  c-36.225,0-36.543,56.109-0.404,56.109c62.189,0,124.374,0,186.564,0c-11.084,11.084-22.168,22.168-33.252,33.252  c-25.564,25.56,14.259,65.08,39.883,39.456c27.011-27.007,54.018-54.014,81.029-81.025  C395.74,244.916,395.445,226.85,384.682,216.091z" id="svg_2"/><g id="svg_3">
</g><g id="svg_4">
</g><g id="svg_5">
</g><g id="svg_6">
</g><g id="svg_7">
</g><g id="svg_8">
</g><g id="svg_9">
</g><g id="svg_10">
</g><g id="svg_11">
</g><g id="svg_12">
</g><g id="svg_13">
</g><g id="svg_14">
</g><g id="svg_15">
</g><g id="svg_16">
</g><g id="svg_17">
</g></g></svg>