<svg xmlns="http://www.w3.org/2000/svg" xmlns:xlink="http://www.w3.org/1999/xlink" version="1.1" xml:space="preserve" width="512" height="512"><rect id="backgroundrect" width="100%" height="100%" x="0" y="0" fill="none" stroke="none"/>


















<g class="currentLayer"><title>Layer 1</title><path d="M256,0C114.843,0,0,114.843,0,256s114.843,256,256,256s256-114.843,256-256S397.157,0,256,0z" id="svg_1" class="" fill-opacity="1" fill="#cde786"/><path d="M256,493.037C125.296,493.037,18.963,386.704,18.963,256S125.296,18.963,256,18.963  S493.037,125.296,493.037,256S386.704,493.037,256,493.037z" id="svg_2" class="" fill-opacity="1" fill="#def0a5"/><path d="M201.42051517776736,110.760096627039 c-6.338912852399333,-5.06280486988352 -16.607130215897172,-5.06280486988352 -22.94433169873592,0 c-6.337201482838748,5.06280486988352 -6.338912852399333,13.263892672070648 0,18.325330693987137 L337.3802699182816,255.99999475580597 L178.47618347903145,382.91456219058574 c-6.338912852399333,5.06280486988352 -6.338912852399333,13.263892672070648 0,18.325330693987137 c3.1694564261996665,2.53140243494176 7.321238980173958,3.7971036524126403 11.473021534148252,3.7971036524126403 c4.151782553974293,0 8.303565107948584,-1.26570121747088 11.473021534148252,-3.7971036524126403 l170.37710797339847,-136.07791620575694 c6.338912852399333,-5.06280486988352 6.338912852399333,-13.263892672070648 0,-18.325330693987137 L201.42051517776736,110.760096627039 z" id="svg_3" class="" fill-opacity="1" fill="#7ca500"/><g id="svg_4">
</g><g id="svg_5">
</g><g id="svg_6">
</g><g id="svg_7">
</g><g id="svg_8">
</g><g id="svg_9">
</g><g id="svg_10">
</g><g id="svg_11">
</g><g id="svg_12">
</g><g id="svg_13">
</g><g id="svg_14">
</g><g id="svg_15">
</g><g id="svg_16">
</g><g id="svg_17">
</g><g id="svg_18">
</g></g></svg>