<svg xmlns="http://www.w3.org/2000/svg" xmlns:xlink="http://www.w3.org/1999/xlink" version="1.1" xml:space="preserve" width="512" height="512"><rect id="backgroundrect" width="100%" height="100%" x="0" y="0" fill="none" stroke="none"/>


















<g class="currentLayer"><title>Layer 1</title><path d="M256,0 C114.843,0 0,114.843 0,256 s114.843,256 256,256 s256,-114.843 256,-256 S397.157,0 256,0 z" id="svg_1" class="" fill-opacity="1" fill="#cde786"/><path d="M256.00001335144043,493.0370133514404 C125.29601335144044,493.0370133514404 18.96301335144043,386.70401335144044 18.96301335144043,256.00001335144043 S125.29601335144044,18.96301335144043 256.00001335144043,18.96301335144043 S493.0370133514404,125.29601335144044 493.0370133514404,256.00001335144043 S386.70401335144044,493.0370133514404 256.00001335144043,493.0370133514404 z" id="svg_2" class="" fill-opacity="1" fill="#def0a5"/><path d="M256.00001335144043,493.0370133514404 C125.29601335144044,493.0370133514404 18.96301335144043,386.70401335144044 18.96301335144043,256.00001335144043 S125.29601335144044,18.96301335144043 256.00001335144043,18.96301335144043 S493.0370133514404,125.29601335144044 493.0370133514404,256.00001335144043 S386.70401335144044,493.0370133514404 256.00001335144043,493.0370133514404 z" class="" fill-opacity="1" fill="#def0a5" id="svg_20"/><path d="M158.19457289695418,75.85252328881445 c-6.776442426077714,-6.162284929607749 -17.753400999637726,-6.162284929607749 -24.528013932619842,0 c-6.774612932982119,6.162284929607749 -6.776442426077714,16.144387947330884 0,22.305009193102347 L303.53865187636666,252.6339040488549 L133.6665589643343,407.11027561579283 c-6.776442426077714,6.162284929607749 -6.776442426077714,16.144387947330884 0,22.305009193102347 c3.388221213038857,3.0811424648038743 7.826571462948289,4.621713697205813 12.264921712857719,4.621713697205813 c4.4383502499094325,0 8.876700499818861,-1.5405712324019372 12.264921712857719,-4.621713697205813 l182.13701462489007,-165.6297080054074 c6.776442426077714,-6.162284929607749 6.776442426077714,-16.144387947330884 0,-22.305009193102347 L158.19457289695418,75.85252328881445 z" id="svg_3" class="" fill-opacity="1" fill="#7ca500" stroke-width="8" transform="translate(34,7) "/><g id="svg_4">
</g><g id="svg_5">
</g><g id="svg_6">
</g><g id="svg_7">
</g><g id="svg_8">
</g><g id="svg_9">
</g><g id="svg_10">
</g><g id="svg_11">
</g><g id="svg_12">
</g><g id="svg_13">
</g><g id="svg_14">
</g><g id="svg_15">
</g><g id="svg_16">
</g><g id="svg_17">
</g><g id="svg_18">
</g><path fill="#def0a5" fill-opacity="1" stroke="none" stroke-opacity="1" stroke-width="1" stroke-dasharray="none" stroke-linejoin="miter" stroke-linecap="butt" stroke-dashoffset="" fill-rule="nonzero" opacity="1" marker-start="" marker-mid="" marker-end="" d="M97,203.1999969482422L252,317.1999969482422" id="svg_19"/></g></svg>